inDegrees=no
num_controls=7
num_derivatives=13
num_iterations=80
num_multipliers=7
num_parameters=0
num_slacks=7
num_states=26
objective=0.453006
objective_accelerations=0.049378
objective_balance=0.001065
objective_effort=0.038091
objective_height=0.358860
objective_ligament=0.005613
solver_duration=920.932411
status=Solve_Succeeded
success=true
DataType=double
version=3
OpenSimVersion=4.5
endheader
time	/jointset/ground_pelvis/pelvis_tilt/value	/jointset/ground_pelvis/pelvis_tx/value	/jointset/ground_pelvis/pelvis_ty/value	/jointset/hip_r/hip_flexion_r/value	/jointset/hip_r/hip_adduction_r/value	/jointset/hip_r/hip_rotation_r/value	/jointset/back/lumbar_extension/value	/jointset/patellofemoral_r/patellar_flexion_r/value	/jointset/knee_r/knee_flexion_r/value	/jointset/knee_r/knee_adduction_r/value	/jointset/knee_r/knee_rotation_r/value	/jointset/ankle_r/ankle_angle_r/value	/jointset/subtalar_r/subtalar_angle_r/value	/jointset/ground_pelvis/pelvis_tilt/speed	/jointset/ground_pelvis/pelvis_tx/speed	/jointset/ground_pelvis/pelvis_ty/speed	/jointset/hip_r/hip_flexion_r/speed	/jointset/hip_r/hip_adduction_r/speed	/jointset/hip_r/hip_rotation_r/speed	/jointset/back/lumbar_extension/speed	/jointset/patellofemoral_r/patellar_flexion_r/speed	/jointset/knee_r/knee_flexion_r/speed	/jointset/knee_r/knee_adduction_r/speed	/jointset/knee_r/knee_rotation_r/speed	/jointset/ankle_r/ankle_angle_r/speed	/jointset/subtalar_r/subtalar_angle_r/speed	/forceset/tau_hip_flexion_r	/forceset/tau_hip_adduction_r	/forceset/tau_hip_rotation_r	/forceset/tau_knee_flexion_r	/forceset/tau_ankle_angle_r	/forceset/tau_subtalar_angle_r	/forceset/tau_lumbar_extension	lambda_cid13_p0	lambda_cid14_p0	lambda_cid14_p1	lambda_cid14_p2	lambda_cid14_p3	lambda_cid14_p4	lambda_cid14_p5	/jointset/ground_pelvis/pelvis_tilt/accel	/jointset/ground_pelvis/pelvis_tx/accel	/jointset/ground_pelvis/pelvis_ty/accel	/jointset/hip_r/hip_flexion_r/accel	/jointset/hip_r/hip_adduction_r/accel	/jointset/hip_r/hip_rotation_r/accel	/jointset/back/lumbar_extension/accel	/jointset/patellofemoral_r/patellar_flexion_r/accel	/jointset/knee_r/knee_flexion_r/accel	/jointset/knee_r/knee_adduction_r/accel	/jointset/knee_r/knee_rotation_r/accel	/jointset/ankle_r/ankle_angle_r/accel	/jointset/subtalar_r/subtalar_angle_r/accel	gamma_cid13_p0	gamma_cid14_p0	gamma_cid14_p1	gamma_cid14_p2	gamma_cid14_p3	gamma_cid14_p4	gamma_cid14_p5
1	-0.226880782742812	-0.01560045885494804	0.6276141740858269	1.443105717891588	-0.2387389302128173	-0.08119503973652545	-0.7853824922201583	1.532729155284806	1.532729155284797	-0.1745101713968307	0.1731784227244029	0.4362590725327915	0.1748244608447502	0.06556393950316393	0.004590802992561375	0.01621472989470396	-0.09849530601857544	-0.0002810616675799924	-0.002729700483274025	-0.0001936029603932644	-0.02169578310578555	-0.02169578310578723	0.003682888485647019	-0.001177077760893246	0.01111558201596708	0.005242996904796075	-0.3307925513289706	0.03725607712678911	0.009637074773101103	-0.4730656873909641	-0.008102877226960707	0.0003972708115362109	0.3569636769251385	-0.04077178744497544	-55.02984035279066	-14.40466353258776	8.363237157414115	7.951258059817344	-771.3079998790389	62.33280731889869	1.211937553302233	0.135944406694614	1.856108751516946	-5.471550768672959	0.2683275719439399	-0.7510229822762626	0.01852393464981846	-5.111266780397608	-5.111266780397612	0.5253725164546116	-0.03575985072013497	-0.9905735166946198	0.01647502389859728	-9.20083159534548e-10	-2.595386926871311e-09	3.688457003000809e-09	-7.57646048734193e-09	2.910813259303526e-09	-4.712666170786141e-09	-5.616323606568455e-09
1.01	-0.2261651914987806	-0.01554760739664139	0.627869051741117	1.441847761143395	-0.2387284604281632	-0.08125690554694169	-0.7853816634127355	1.532257003846911	1.532257003846913	-0.1744439257909766	0.1731647004288726	0.4363208433360597	0.1748774556884856	0.07755180168024023	0.005997127706144931	0.03476533402378854	-0.1531230727233335	0.002361907678728631	-0.009585637266596508	0.0004723046198239602	-0.07273887522556617	-0.07273887522556716	0.009645323291768327	-0.001550005771360944	0.001255665214740425	0.005338159239538737	-0.3313941292165055	0.03730237879813914	0.009715479461595551	-0.4731499701664514	-0.008250372903789976	0.0003896097458346723	0.3578227204599333	-0.04076932557191963	-55.11199020169452	-14.42395137862937	8.368113431343478	7.782978425429214	-771.9375706605757	62.34488730074373	1.191836195222857	0.1456229719677957	1.855213364064167	-5.462442500958452	0.2603194702492072	-0.6442040611794921	0.1075652016794386	-5.101487034534828	-5.101487034534762	0.6435430505345933	-0.03544349108260154	-0.9811384192956557	0.003374481983231815	4.910126857726365e-09	3.93187751804373e-09	3.539608390347368e-08	3.272861234852285e-08	3.060466336775474e-09	-1.395014817678154e-08	6.745255594308867e-08
1.02	-0.2253297965039066	-0.01548016339754333	0.6283095708617901	1.440042716152257	-0.2386919533791894	-0.0813855957321581	-0.7853707873233907	1.531274290166466	1.531274290166461	-0.1743156830195461	0.1731477720102555	0.4362845274398618	0.1749308696843119	0.08952468966980061	0.007509311150841727	0.05334302297132403	-0.2079129546113375	0.004926391196037658	-0.0160945754426879	0.001815853478904073	-0.1238082316160096	-0.1238082316160099	0.01608232161164017	-0.001818302376729019	-0.008501757884845482	0.005326827323125577	-0.3319957071039615	0.03734868046947622	0.009793884150044023	-0.4732342529419375	-0.008397868580633912	0.0003819486801014361	0.3586817639948047	-0.04077430293717128	-55.20171251340881	-14.44067784726497	8.368140811488836	7.618118657895692	-772.6878546288789	62.38837631882726	1.208942715798894	0.15711615291736	1.861525715207158	-5.503973805322193	0.2526304061439855	-0.6816232608300048	0.1540521904229695	-5.116519634530206	-5.116519634530208	0.6202852192048095	-0.01483356970017728	-0.9700747763663123	-0.004823826332552652	1.184265743026185e-08	1.483430543684572e-08	7.069615302903295e-08	8.247209052082553e-08	-3.786140232733242e-09	-2.13681490059629e-08	1.547024922926388e-07
1.03	-0.2243750893128212	-0.01539711086929455	0.628935903146001	1.437689535699508	-0.2386301387167403	-0.0815779287494955	-0.7853426818639466	1.529780710278919	1.529780710278936	-0.1741210483682389	0.1731286545419242	0.4361509011093452	0.17498361873379	0.1013795576012107	0.009114724724498346	0.07191806466403509	-0.2626926740526216	0.007430322580599002	-0.02234694002849447	0.003959696823001716	-0.1749167380964203	-0.1749167380964207	0.02288275564015137	-0.001993859837264768	-0.01823071794697309	0.005206287325104537	-0.3324615302660579	0.03743471868330016	0.009909340111180913	-0.4729202829619267	-0.008824865574279148	0.0003918682759225412	0.359440645290563	-0.0407938359533855	-55.36413625042314	-14.45313482064571	8.356792264848748	7.589416659259952	-773.1503679443422	62.39430607539271	1.168185916434608	0.1642813109098964	1.854682216981869	-5.460396414605966	0.2483587331185896	-0.5932698531048193	0.2677191686375275	-5.109368784708858	-5.109368784709	0.7156414607133357	-0.01718101018984456	-0.9753877743057641	-0.01814095750891553	1.878643617172871e-08	2.578137788089148e-08	1.060328797283176e-07	1.323118789516633e-07	-1.070413720680302e-08	-2.876758370068697e-08	2.420971333034123e-07
1.04	-0.2233029480254805	-0.01529759873504537	0.6297478236112749	1.434789472972133	-0.2385434678947497	-0.08183203077178743	-0.7852885042186339	1.527775774800586	1.527775774800588	-0.1738572655833921	0.173108128663826	0.4359197689475637	0.1750346680090922	0.1130115089174867	0.01080123235091979	0.09046065918394548	-0.3172894095368978	0.009897623105395966	-0.02844837644024367	0.007030290656458289	-0.2260793497733246	-0.2260793497733249	0.02991194831021589	-0.002099984336183566	-0.02800292413588943	0.00498687248820418	-0.3329273534281958	0.03752075689718135	0.01002479607185235	-0.4726063129819566	-0.009251862567896785	0.0004017878718759493	0.3601995265862883	-0.04082070473145873	-55.5341030034937	-14.46269775715085	8.340167702857329	7.562071403347061	-773.7356271791267	62.43310523198336	1.164359392771959	0.1733349634704082	1.85503628064705	-5.467377013920633	0.2453042341910921	-0.6514376260185419	0.3394022882947518	-5.127340673828948	-5.127340673828925	0.6660369475154894	-0.0009469773767742179	-0.9787240017239183	-0.02459879410838247	2.402564679404413e-08	3.414601328972713e-08	1.343962190488788e-07	1.710426170097148e-07	-1.597527511813157e-08	-3.451367879370466e-08	3.09256398135389e-07
1.05	-0.2221156673084158	-0.01518078041790874	0.630744903390746	1.431344622563016	-0.238432353850978	-0.08214611899907852	-0.7851987797986424	1.525259143501594	1.525259143501609	-0.1735217616161021	0.1730869342131953	0.4355906665082088	0.1750829159398697	0.1243984178341818	0.01257954900667719	0.1089392741220587	-0.3716214274807592	0.01231593746696626	-0.03431669930771114	0.01109286293350618	-0.2772360631673051	-0.2772360631673046	0.03725342333414199	-0.002127002926105947	-0.037827674428093	0.004638038341650413	-0.3331669166785623	0.03757028956152382	0.0101949776797354	-0.4719623282421337	-0.009596827367002852	0.0004092930242622249	0.3608100518670238	-0.04085291169720772	-55.64980524869021	-14.45968783348336	8.316832858568574	7.474076540847928	-773.9328726964487	62.43812262659134	1.118932895539587	0.1826434146135658	1.841862613068868	-5.407219204600982	0.2387346284539026	-0.5466277513900747	0.4664251360093467	-5.108215538298587	-5.108215538298621	0.7778841954134113	-0.001737226293476322	-0.9858662455416192	-0.04367668201400461	2.921158966263607e-08	4.242994754121247e-08	1.625416400138549e-07	2.094261972436168e-07	-2.119494868374947e-08	-4.020810702416904e-08	3.757833074617782e-07
1.06	-0.2208159022512823	-0.0150456662546177	0.6319262870221336	1.427358230970472	-0.2382973287453319	-0.08251731008187925	-0.7850630815681566	1.522231269295439	1.522231269295445	-0.1731109066154392	0.17306583799138	0.4351630134254145	0.1751269453377631	0.1355083769276966	0.01446040158180374	0.1273214295672355	-0.4255976462239162	0.01467983548108535	-0.03986894754634353	0.01622505275451993	-0.328327931205924	-0.3283279312059229	0.04498215498135506	-0.002080338575768744	-0.04771305282321622	0.004143165911692406	-0.333406479928942	0.03761982222588856	0.01036515928740799	-0.4713183435023264	-0.009941792166096475	0.0004167981767015153	0.3614205771477511	-0.04089247872040232	-55.77308169017194	-14.45348991884667	8.287833124821102	7.386416377914645	-774.2552364017896	62.4773858180228	1.108969428135827	0.1938421473442939	1.835744382059801	-5.396217173779767	0.2344209647008416	-0.5882227002515379	0.5533257970878915	-5.114371602756654	-5.114371602756653	0.7434882721728884	0.0137896106751438	-0.9908496223077577	-0.05380645078920247	3.539219930325308e-08	5.172240976641613e-08	1.926319439811668e-07	2.552382285978076e-07	-2.639794429466843e-08	-4.64668675979008e-08	4.505747319591896e-07
1.07	-0.2194063497427375	-0.01489121370051917	0.6332909355519002	1.422833946795152	-0.2381389286896818	-0.08294272142243439	-0.7848708179482936	1.518692892623964	1.518692892623981	-0.1726211554858369	0.1730455665127999	0.4346361570008195	0.1751652939671317	0.1463602469414103	0.01644892571907723	0.1455845682344694	-0.4791881652602227	0.01699363272707879	-0.04518465349647788	0.02239905215112091	-0.3793274736436296	-0.3793274736436213	0.05300128297221831	-0.001967271960735118	-0.05767264535869769	0.003505407332369783	-0.3333066361629464	0.03765103654529689	0.01058379791121856	-0.4703844573974372	-0.01017469451560931	0.0004115287271638573	0.3617506570165641	-0.04093878362789725	-55.83221938925154	-14.43949541985741	8.255175647534029	7.269842447495316	-774.1456236115689	62.47778992551309	1.067026397017622	0.2041736256042327	1.818031746288006	-5.329804045960607	0.2289163131525385	-0.49891959899776	0.6751441507712902	-5.08976456079515	-5.089764560794212	0.836098328969248	0.0111487971224057	-1.000674395489127	-0.07186267736224446	4.16257167508927e-08	6.106851709660482e-08	2.228256991720071e-07	3.014453903307373e-07	-3.160005278033744e-08	-5.275564584946593e-08	5.258057583274e-07
1.08	-0.2178895324122323	-0.01471631268931099	0.6348375020957859	1.417775890474006	-0.2379575792198545	-0.08342042483379275	-0.7846116729064929	1.514645116728807	1.514645116728813	-0.1720502184230345	0.1730266424224198	0.4340092725856043	0.1751966445875334	0.1569613413162348	0.01855009300373189	0.1637050323910631	-0.5323520753927188	0.01926971831722695	-0.05032736171074576	0.02960133714071022	-0.43020777594204	-0.4302077759420246	0.0612193416201298	-0.001810860937504526	-0.06771865094700931	0.002743564118709526	-0.3332067923969108	0.0376822508647192	0.01080243653490522	-0.469450571292554	-0.01040759686512116	0.000406259277656113	0.3620807368854176	-0.04099248400392515	-55.89898550326397	-14.4220583089775	8.216511007468656	7.152636152588899	-774.1638123571385	62.51364249619845	1.058814300357947	0.2163707768205586	1.807209479931798	-5.310895393017693	0.2268786335317806	-0.5536231530782456	0.7589829156855464	-5.090523574897662	-5.09052357489766	0.7832744035825377	0.02245849231452844	-1.00813223287374	-0.07862337765670679	4.61268038083331e-08	6.740215151374036e-08	2.441581828605089e-07	3.350785637572852e-07	-3.462922716894494e-08	-5.783891760384145e-08	5.777007986081121e-07
